<svg width="50" height="84" viewBox="0 0 50 84" fill="none" xmlns="http://www.w3.org/2000/svg">
<path d="M48.4801 38.7223L11.099 1.34194C10.2344 0.476679 9.08029 0 7.84967 0C6.61904 0 5.46491 0.476679 4.60033 1.34194L1.84747 4.09411C0.0561705 5.88746 0.0561705 8.80217 1.84747 10.5928L33.2373 41.9826L1.81264 73.4072C0.948065 74.2725 0.470703 75.4259 0.470703 76.6559C0.470703 77.8872 0.948065 79.0406 1.81264 79.9066L4.5655 82.6581C5.43076 83.5233 6.58422 84 7.81484 84C9.04546 84 10.1996 83.5233 11.0642 82.6581L48.4801 45.2435C49.3467 44.3755 49.8227 43.2166 49.82 41.9846C49.8227 40.7479 49.3467 39.5896 48.4801 38.7223Z" fill="black" fill-opacity="0.4"/>
</svg>
