<svg width="50" height="84" viewBox="0 0 50 84" fill="none" xmlns="http://www.w3.org/2000/svg">
<path d="M1.66447 45.2777L39.0455 82.6581C39.9101 83.5233 41.0642 84 42.2949 84C43.5255 84 44.6796 83.5233 45.5442 82.6581L48.2971 79.9059C50.0884 78.1125 50.0884 75.1978 48.2971 73.4072L16.9073 42.0174L48.3319 10.5928C49.1965 9.72753 49.6738 8.57407 49.6738 7.34413C49.6738 6.11282 49.1965 4.95937 48.3319 4.09343L45.579 1.34193C44.7138 0.476677 43.5603 -5.3446e-07 42.3297 -6.42045e-07C41.0991 -7.49629e-07 39.9449 0.476676 39.0804 1.34193L1.66447 38.7565C0.79784 39.6245 0.321846 40.7834 0.324577 42.0154C0.321846 43.2521 0.79784 44.4104 1.66447 45.2777Z" fill="black" fill-opacity="0.4"/>
</svg>
