<svg width="219" height="51" viewBox="0 0 219 51" fill="none" xmlns="http://www.w3.org/2000/svg">
<g clip-path="url(#clip0)">
<path d="M35.3335 5.12822L35.984 18.7376H33.2781L33.226 16.8216C33.0439 11.2426 28.3345 6.93153 23.0787 6.93153C15.6373 6.93153 10.6157 14.5674 10.6157 28.0641C10.6157 39.4194 15.7414 46.8862 23.547 46.8862C31.5088 46.8862 34.579 38.2923 35.5417 34.9393L38.3777 35.8409C34.4749 49.6476 25.7326 51 21.3094 51C6.73892 51 5.79201e-05 39.7575 5.79201e-05 27.9514C-0.0259609 13.9757 8.71635 4.22656 21.6997 4.22656C26.5912 4.22656 30.0778 5.43816 32.6796 6.93153L32.6276 5.12822H35.3335Z" fill="white"/>
<path d="M41.3184 50.0702V47.9005H42.8535C43.7381 47.9005 44.6227 47.9569 44.6227 46.0972V8.65028C44.6227 5.69171 43.2698 5.9453 42.255 5.9453H41.3184V3.77569C44.9694 2.99196 48.5174 1.72383 51.882 0V22.4569C55.7067 20.2028 58.2045 19.1884 60.4422 19.1884C64.345 19.1884 68.534 21.5552 68.534 28.2331V46.0691C68.534 47.9287 69.4186 47.8724 70.3033 47.8724H71.8384V50.042H57.9704V47.8724H59.5055C60.3901 47.8724 61.2748 47.9287 61.2748 46.0691V28.9939C61.2748 23.9785 58.4387 23.0768 56.6174 23.0768C55.2124 23.0768 52.9488 24.0912 51.908 24.6265V46.0691C51.908 47.9287 52.7926 47.8724 53.6773 47.8724H55.2124V50.042H41.3184V50.0702Z" fill="white"/>
<path d="M74.4395 50.0702V47.9005H75.9746C76.8592 47.9005 77.7438 47.9569 77.7438 46.0972V8.65028C77.7438 5.69171 76.3909 5.9453 75.3761 5.9453H74.4395V3.77569C78.0905 2.99196 81.6385 1.72383 85.0031 0V35.8127L90.2589 28.684C92.6786 25.3591 93.0949 24.2039 93.0949 23.6122C93.0949 22.5978 92.3924 22.0624 91.5598 22.0624H90.2068V19.8928H102.67V22.0624H101.707C100.302 22.0624 98.689 22.5133 95.931 25.8381L91.7419 30.9099L101.239 44.9138C102.41 46.6608 103.372 47.9287 105.194 47.8724V50.042H91.7419V47.8724H92.1062C92.7046 47.8724 93.7714 47.816 93.7714 46.9144C93.7206 46.4286 93.5597 45.964 93.3031 45.5619L87.2147 36.2635L85.0291 39.2785V46.0972C85.0291 47.9569 85.9137 47.9005 86.7984 47.9005H88.3335V50.0702H74.4395Z" fill="white"/>
<path d="M124.135 33.9526C121.897 34.4598 116.459 36.3195 116.459 42.4338C116.459 44.9979 117.76 46.4913 119.894 46.4913C121.845 46.4913 123.25 45.1388 124.135 44.1245V33.9526ZM135.713 45.3642C134.308 50.1261 131.238 50.746 129.703 50.746C126.581 50.746 124.863 49.1399 124.395 46.6322C121.877 49.238 118.537 50.7087 115.054 50.746C110.683 50.746 108.029 47.2239 108.029 42.9128C108.029 35.0797 116.642 33.2764 124.135 31.7548V27.1902C124.135 22.5692 121.949 21.3576 119.478 21.3576C118.827 21.3576 117.11 21.6112 117.11 24.0626C117.11 24.767 117.344 25.4151 117.344 26.0631C117.344 28.6836 115.445 30.0361 113.441 30.0361C111.308 30.0361 109.668 28.3736 109.668 25.9222C109.668 23.4145 111.334 19.188 119.894 19.188C125.566 19.188 131.394 21.2449 131.394 28.9372V44.6598C131.394 45.6178 131.576 46.4631 132.331 46.4631C132.981 46.4631 133.58 45.6178 133.996 44.6598L135.713 45.3642Z" fill="white"/>
<path d="M140.268 50.0702V47.9005H141.803C142.687 47.9005 143.572 47.9569 143.572 46.0972V8.65028C143.572 5.69171 142.219 5.9453 141.204 5.9453H140.268V3.77569C143.919 2.99196 147.467 1.72383 150.831 0V46.0972C150.831 47.9569 151.716 47.9005 152.6 47.9005H154.136V50.0702H140.268Z" fill="white"/>
<path d="M171.957 48.5764C177.968 48.5764 177.916 38.7427 177.916 34.967C177.916 31.1913 177.968 21.3576 171.957 21.3576C166.285 21.3576 165.999 30.0924 165.999 34.967C165.999 39.8416 166.311 48.5764 171.957 48.5764ZM171.957 19.188C180.804 19.188 186.372 25.8095 186.372 34.9952C186.372 44.1808 180.83 50.8024 171.957 50.8024C163.085 50.8024 157.543 44.1245 157.543 34.9952C157.569 25.9786 163.111 19.188 171.957 19.188Z" fill="white"/>
<path d="M202.009 19.8931V22.0627H200.239C198.288 22.0627 199.121 24.0632 199.225 24.2323L206.015 40.8002L208.253 35.4185C209.268 33.0516 211.609 25.9793 211.609 23.9787C211.609 22.119 210.204 22.0627 209.606 22.0627H208.305V19.8931H218.999V22.0627H218.478C216.657 22.0627 215.694 24.2323 211.87 33.2207L204.376 50.7467H202.009L191.445 24.4295C190.847 23.0207 189.624 21.9218 188.141 22.0627V19.8931H202.009Z" fill="white"/>
<path d="M132.254 13.7224H108.941V10.7074C108.941 10.7074 121.144 10.482 132.254 7.2417V13.7224Z" fill="white"/>
</g>
<defs>
<clipPath id="clip0">
<rect width="219" height="51" fill="white"/>
</clipPath>
</defs>
</svg>
