<svg width="9" height="16" viewBox="0 0 9 16" fill="none" xmlns="http://www.w3.org/2000/svg">
<rect width="8.3" height="16" rx="1" fill="black"/>
<path d="M8.2963 15.4074V0.296296C8.2963 0.217714 8.26508 0.14235 8.20951 0.0867832C8.15395 0.0312168 8.07858 0 8 0L0.296296 0C0.217714 0 0.14235 0.0312168 0.0867832 0.0867832C0.0312168 0.14235 0 0.217714 0 0.296296L0 16H8.2963V15.4074ZM7.7037 15.4074H0.592593V0.592593H7.7037V15.4074Z" fill="#FFAE1C"/>
<path d="M2.5 4H5.5C5.63261 4 5.75979 3.97366 5.85355 3.92678C5.94732 3.87989 6 3.8163 6 3.75V2.25C6 2.1837 5.94732 2.12011 5.85355 2.07322C5.75979 2.02634 5.63261 2 5.5 2H2.5C2.36739 2 2.24021 2.02634 2.14645 2.07322C2.05268 2.12011 2 2.1837 2 2.25V3.75C2 3.8163 2.05268 3.87989 2.14645 3.92678C2.24021 3.97366 2.36739 4 2.5 4Z" fill="#FFAE1C"/>
<path d="M2.5 7H5.5C5.63261 7 5.75979 6.97366 5.85355 6.92678C5.94732 6.87989 6 6.8163 6 6.75V5.25C6 5.1837 5.94732 5.12011 5.85355 5.07322C5.75979 5.02634 5.63261 5 5.5 5H2.5C2.36739 5 2.24021 5.02634 2.14645 5.07322C2.05268 5.12011 2 5.1837 2 5.25V6.75C2 6.8163 2.05268 6.87989 2.14645 6.92678C2.24021 6.97366 2.36739 7 2.5 7Z" fill="#FFAE1C"/>
<path d="M2.5 13H5.5C5.63261 13 5.75979 12.9737 5.85355 12.9268C5.94732 12.8799 6 12.8163 6 12.75V11.25C6 11.1837 5.94732 11.1201 5.85355 11.0732C5.75979 11.0263 5.63261 11 5.5 11H2.5C2.36739 11 2.24021 11.0263 2.14645 11.0732C2.05268 11.1201 2 11.1837 2 11.25V12.75C2 12.8163 2.05268 12.8799 2.14645 12.9268C2.24021 12.9737 2.36739 13 2.5 13Z" fill="#FFAE1C"/>
<path d="M2.5 10H5.5C5.63261 10 5.75979 9.97366 5.85355 9.92678C5.94732 9.87989 6 9.8163 6 9.75V8.25C6 8.1837 5.94732 8.12011 5.85355 8.07322C5.75979 8.02634 5.63261 8 5.5 8H2.5C2.36739 8 2.24021 8.02634 2.14645 8.07322C2.05268 8.12011 2 8.1837 2 8.25V9.75C2 9.8163 2.05268 9.87989 2.14645 9.92678C2.24021 9.97366 2.36739 10 2.5 10Z" fill="#FFAE1C"/>
</svg>
